# xmcd
#
# Track frame offsets:
#   150
#   14268
#   31603
#   48637
#   65953
#   79168
#   93831
#   108690
#   124740
#   136639
#   150466
#   163579
#   175854
#   187136
#   204138
#   217169
#   231630
#   251318
#   264978
#   276912
#
# Disc length: 3849 seconds
#
# Revision: 0
# Processed by: cddbd v1.5.2PL0 Copyright (c) Steve Scherf et al.
# Submitted via: uFREEDB ActiveX Control 1.5
#
DISCID=190f0714
DTITLE=Terceira Dimensão - As 20 Mais
DYEAR=2002
DGENRE=Pop
TTITLE0=99 e Alguma Coisa
TTITLE1=Casa Comida e Bom Salário
TTITLE2=Vou pra Santa Catarina
TTITLE3=Maria Tcha Tcha Tcha
TTITLE4=Casar não é comigo
TTITLE5=Faz tempo que eu te tenho
TTITLE6=Cunhado
TTITLE7=Na hora do adeus
TTITLE8=Caramba
TTITLE9=Ôba
TTITLE10=Lençol Manchado
TTITLE11=Sou seu fã
TTITLE12=Vai ter arrasta pé
TTITLE13=Oh Coitado
TTITLE14=Genro Bom
TTITLE15=Allan Bique
TTITLE16=A Carne é fraca
TTITLE17=Carro a alho
TTITLE18=Com Meias Nova
TTITLE19=Mulher Boa
EXTD=
EXTT0=
EXTT1=
EXTT2=
EXTT3=
EXTT4=
EXTT5=
EXTT6=
EXTT7=
EXTT8=
EXTT9=
EXTT10=
EXTT11=
EXTT12=
EXTT13=
EXTT14=
EXTT15=
EXTT16=
EXTT17=
EXTT18=
EXTT19=
PLAYORDER=
